<?xml version="1.0" standalone="no"?>
<!DOCTYPE svg PUBLIC "-//W3C//DTD SVG 20010904//EN"
 "http://www.w3.org/TR/2001/REC-SVG-20010904/DTD/svg10.dtd">
<svg version="1.0" xmlns="http://www.w3.org/2000/svg"
 viewBox="0 0 2600.000000 2600.000000"
 preserveAspectRatio="xMidYMid meet">
<metadata>
Created by potrace 1.15, written by Peter Selinger 2001-2017
</metadata>
<g transform="translate(0.000000,2600.000000) scale(0.100000,-0.100000)"
fill="#000000" stroke="none">
<path d="M17450 20655 c-30 -9 -73 -27 -95 -40 -22 -13 -265 -250 -541 -527
-574 -576 -549 -544 -549 -708 0 -174 -134 -26 1478 -1637 1611 -1612 1463
-1478 1637 -1478 166 0 143 -18 731 572 478 479 508 511 529 568 17 44 24 82
24 140 1 70 -3 89 -32 150 -32 67 -86 123 -1450 1487 -1336 1336 -1421 1419
-1483 1448 -82 38 -170 47 -249 25z"/>
<path d="M15465 18639 c-27 -4 -70 -15 -95 -25 -39 -14 -664 -635 -4598 -4568
-4057 -4055 -4556 -4558 -4583 -4611 -24 -49 -114 -426 -450 -1880 -398 -1720
-421 -1824 -417 -1896 10 -186 152 -327 337 -337 72 -3 179 20 1891 416 998
230 1840 429 1870 442 50 21 445 413 4602 4569 3840 3839 4553 4555 4580 4606
31 57 33 65 33 165 0 90 -4 112 -24 155 -19 40 -295 322 -1440 1468 -779 780
-1436 1431 -1461 1447 -67 43 -163 62 -245 49z m-6938 -11920 c-6 -4 -281 -69
-610 -144 l-599 -138 -440 441 -441 440 138 599 c76 329 140 604 143 612 3 8
351 -333 913 -895 569 -569 904 -911 896 -915z"/>
</g>
</svg>
