<?xml version="1.0" encoding="UTF-8"?>
<svg width="150px" height="150px" viewBox="0 0 150 150" version="1.1" xmlns="http://www.w3.org/2000/svg" xmlns:xlink="http://www.w3.org/1999/xlink">
    <title>Devnote-logo</title>
    <g id="Devnote-logo" stroke="none" stroke-width="1" fill="none" fill-rule="evenodd">
        <path d="M84.1184821,9 C95.3974804,9 106.167446,10.8962824 116.031015,14.3369954 L116.984222,12.0946902 L135.555092,19.9644149 L122.592548,50.4469512 L104.023014,42.5803822 L104.884,40.554 L104.483577,40.418859 C101.933109,39.5825218 99.7009733,39.2007266 97.7803498,39.3541366 L97.4631291,39.3846744 C95.404778,39.6172731 93.9038223,40.6745625 92.9431604,42.5322594 C91.7010834,44.9334655 89.9638032,53.749402 87.8511094,64.9644331 C83.9405932,87.5083088 80.7302173,104.755425 78.2224985,116.707394 L78.0488116,117.546495 C76.403201,125.488128 74.8466594,131.895213 73.5449459,135.369652 C72.8365106,137.196839 71.5878958,138.750184 69.529167,139.799555 C68.1415715,140.506838 66.2999467,141 63.8474704,141 C57.8402627,141 50.3397496,137.69353 48.0422037,135.807933 C46.5910088,134.613329 45.5446176,132.817986 44.9892667,130.855702 C44.3572703,128.622598 44.3861558,126.261565 44.7232019,124.841316 C45.2844432,122.471113 46.0583474,119.382673 47.0009986,115.854743 L47.1500297,115.298434 C48.7636157,109.293745 50.846556,102.093322 53.1833837,95.0390394 C54.5694638,90.8517641 57.8420482,78.4941107 63.0102821,57.9700884 C65.3594132,47.4565276 67.2940965,38.0398202 66.467017,35.1352593 C66.2892538,34.5116884 65.8035004,34.2668301 65.2980413,34.1265758 C63.0656534,33.5071348 60.2016144,34.1058872 58.1446213,34.4358934 C57.2349446,34.5817038 56.3039307,34.7375076 55.2310246,34.9170158 C49.7629297,35.831884 40.7754085,37.3019657 37.1479205,37.3019657 C36.0548703,37.3019657 35.2247218,37.0349059 34.576966,36.6962753 C33.495253,36.1307828 32.7890691,35.2999106 32.3604783,34.3464217 C31.5688889,32.5853668 32.0631221,30.1293039 32.9312935,28.8933487 C37.8326392,21.9342734 45.0530717,16.4291856 55.8175043,13.1587197 C64.6761227,10.4657685 74.201161,9 84.1184821,9 Z M31.3878891,48.3021455 L43.2492916,64.6011161 L24.8802047,77.9230864 L44.0513621,90.8319802 L32.7674109,107.536235 L1,86.1444126 L1,70.3403637 L31.3878891,48.3021455 Z M117.234626,48.3363497 L149,69.7262317 L149,85.5301481 L118.614051,107.56998 L106.750503,91.2714114 L125.119897,77.9478939 L105.947892,65.0382771 L117.234626,48.3363497 Z" id="形状结合" fill="#FFFFFF" fill-rule="nonzero"></path>
        <g id="编组" transform="translate(5, 13)" fill-rule="nonzero">
            <path d="M64.7052657,121.212816 C70.2616722,106.883341 80.3691476,35.4683138 84.3903345,27.6944815 C88.2155532,20.2973971 97.1831775,20.5449184 111.292227,28.43574 C111.671595,28.6479272 112.123774,28.6879443 112.534616,28.5456896 C112.945459,28.4034348 113.275706,28.0925017 113.441992,27.6913813 L120.547511,10.5672167 C120.710832,10.1741434 120.542084,9.7218978 120.160968,9.53128228 C108.084822,3.46921379 94.0673011,0 79.1184821,0 C69.6090445,0 60.4753621,1.40354515 51.9809052,3.98579412 C42.2325139,6.94756483 35.647561,11.8841213 31.2015859,18.196648 C30.8014775,18.766257 30.5687348,20.3019657 32.1479205,20.3019657 C36.3626239,20.3019657 48.0796854,18.196648 52.3156364,17.5177185 C56.565153,16.8373206 63.761873,15.5948192 65.3137638,21.0386556 C67.3556565,28.2094301 55.7283251,71.9754989 51.9809052,83.2958852 C48.224169,94.6361776 45.1326456,106.356155 43.6155682,112.762991 C43.2154598,114.448975 43.6155682,118.098975 45.5844019,119.719693 C47.5091061,121.299293 53.8233976,124 58.8474704,124 C62.3802897,124 64.1209571,122.714913 64.7052657,121.212816 Z" id="路径" fill="#F08519"></path>
            <polygon id="路径" fill="#000000" points="114.102301 4.33659883 125.306806 9.08469973 115.474732 32.2056668 104.270391 27.4591976"></polygon>
            <path d="M58.8474704,124 C62.3802897,124 64.1209571,122.714913 64.7052657,121.212816 C67.2065966,114.757357 71.9459518,91.4283541 78.9205527,51.2240137 L61.8919222,45.9412211 C56.6823416,66.6243403 53.3775252,79.0764388 51.9807418,83.2960484 C48.224169,94.6361776 45.1324822,106.356155 43.6157316,112.762991 C43.2152964,114.448975 43.6157316,118.098975 45.5844019,119.719693 C47.5091061,121.299293 53.8233976,124 58.8474704,124 L58.8474704,124 Z" id="路径" fill="#000000"></path>
            <path d="M0,71.0155994 L0,59.380631 L25.5034743,40.8847384 L32.6575357,50.7152653 L12.8992444,65.0447401 L33.4943636,78.912458 L26.6885992,88.987406 L0,71.0155994 L0,71.0155994 Z M140,58.8550766 L140,70.490045 L114.497997,88.987406 L107.342464,79.1568792 L127.100592,64.826099 L106.505473,50.9582179 L113.312872,40.8847384 L140,58.8550766 L140,58.8550766 Z" id="形状" fill="#04AAC2"></path>
        </g>
    </g>
</svg>